# xmcd
#
# Track frame offsets: 
#        150
#        17022
#        34747
#        54412
#        75390
#        89714
#        108014
#        123075
#        140195
#        157792
#        179919
#        199388
#
# Disc length: 2944 seconds
#
# Revision: 0
# Processed by: cddbd v1.5.2PL0 Copyright (c) Steve Scherf et al.
# Submitted via: ExactAudioCopy v0.95a5
#
DISCID=9c0b7e0c
DTITLE=Musiq Soulchild - Luvanmusiq
DYEAR=2007
DGENRE=R&B
TTITLE0=B.U.D.D.Y.
TTITLE1=Ms.Philadelphia
TTITLE2=Teachme
TTITLE3=Betterman
TTITLE4=Thequestions
TTITLE5=Today
TTITLE6=Makeyouhappy
TTITLE7=Ridiculous
TTITLE8=Millionaire
TTITLE9=Takeyouthere
TTITLE10=Lullaby
TTITLE11=Greatestlove
EXTD=
EXTT0=
EXTT1=
EXTT2=
EXTT3=
EXTT4=
EXTT5=
EXTT6=
EXTT7=
EXTT8=
EXTT9=
EXTT10=
EXTT11=
PLAYORDER=
